<svg xmlns="http://www.w3.org/2000/svg"
     width="150"
     height="150"
     viewBox="0 0 500 500"
     preserveAspectRatio="xMidYMid meet">
  <path d="M10.5 1.2c-.2.7-2.3 11-4.5 22.8-2.3 11.8-4.3 22.3-4.6 23.2-.5 1.6.2 1.8 5.3 1.8 7.6 0 12-1.3 15.6-4.7C33.4 33.7 35.2 6.8 25.1 1.6c-3.7-1.9-14-2.2-14.6-.4zm11.3 8c1.9 1.9 1.4 13.8-.7 20.8-2.1 6.6-5.3 11-8.1 11-1.5 0-1.4-1.5 1.2-15.3 1.6-8.3 3.1-15.8 3.3-16.5.6-1.5 2.7-1.6 4.3 0zM39 .2c0 .3-2 10.9-4.5 23.7C32 36.7 30 47.6 30 48.1c0 .6 1.8.9 4.2.7l4.3-.3 1.4-8.3c1.8-10.4 3.6-10.9 4.5-1.1 1 9.6 1.2 9.9 5.7 9.9s4.6-.4 2.8-12.2c-1.1-7-1.1-7 1.8-10.2 4-4.3 5.3-7.7 5.3-14.1 0-4.6-.5-6-2.9-8.7C54.4.8 53.7.5 46.6.2 42.4 0 39 0 39 .2zm12.2 10.4c1.7 3.6-.8 10.3-4.4 12.3-1.5.9-2.9 1.3-3.2 1.1-.2-.3.3-4 1.1-8.3C46 9.4 46.6 8 48.2 8c1 0 2.4 1.1 3 2.6zM72.1 22.2c-2.4 12.3-4.5 23.3-4.8 24.5-.5 2.1-.2 2.3 3.5 2.3 3 0 4.2-.5 4.6-1.8.4-1.3 3.2-15.7 4.7-24 .1-.4 1.1 5.1 2.3 12.3l2.1 13 3.6.3c3.1.3 3.7 0 4.2-2 1.2-4.9 8.7-44.1 8.7-45.4 0-1-1.2-1.4-3.9-1.4h-3.9l-2.3 12.1c-2.5 13.1-2.9 13.1-4.8-.1-1.8-12.3-1.7-12-6-12h-3.7l-4.3 22.2z"/>
</svg>
