<?xml version="1.0" standalone="no"?>
<!DOCTYPE svg PUBLIC "-//W3C//DTD SVG 20010904//EN"
 "http://www.w3.org/TR/2001/REC-SVG-20010904/DTD/svg10.dtd">
<svg version="1.0" xmlns="http://www.w3.org/2000/svg"
 width="500.000000pt" height="500.000000pt" viewBox="0 0 500.000000 500.000000"
 preserveAspectRatio="xMidYMid meet">

<g transform="translate(0.000000,500.000000) scale(0.100000,-0.100000)"
fill="#000000" stroke="none">
<path d="M2290 2932 c-80 -40 -91 -143 -26 -250 68 -112 39 -185 -54 -137 -32
16 -33 15 -42 -49 -7 -46 117 -64 167 -24 32 25 55 74 55 120 0 19 -19 71 -45
124 -38 75 -44 95 -36 116 13 34 37 41 74 23 17 -8 32 -14 33 -12 2 1 6 21 10
44 6 41 6 41 -32 52 -52 15 -63 14 -104 -7z"/>
<path d="M3287 2883 c-14 -38 -57 -150 -95 -250 l-70 -183 42 0 c41 0 42 1 60
50 17 48 19 50 57 50 l39 0 0 -50 0 -50 40 0 40 0 0 250 0 250 -44 0 -44 0
-25 -67z m36 -186 c-5 -61 -8 -67 -29 -67 l-23 0 20 58 c10 31 22 63 24 71 11
29 14 2 8 -62z"/>
<path d="M1561 2718 c-23 -123 -45 -233 -48 -245 -5 -22 -2 -23 58 -23 79 0
136 25 174 74 40 53 67 147 68 241 1 131 -37 175 -151 175 l-58 0 -43 -222z
m159 123 c22 -43 5 -181 -32 -254 -17 -34 -61 -68 -72 -56 -3 2 9 77 27 167
26 136 34 162 49 162 9 0 22 -9 28 -19z"/>
<path d="M1885 2918 c-3 -13 -25 -123 -48 -245 l-44 -223 43 0 42 0 10 48 c6
26 14 64 17 85 4 20 11 37 15 37 12 0 18 -24 26 -102 l6 -68 44 0 c50 0 48 -6
32 108 -11 82 -11 83 15 110 77 80 75 217 -3 257 -16 8 -55 15 -89 15 -55 0
-61 -2 -66 -22z m115 -73 c17 -21 14 -82 -4 -111 -15 -22 -53 -41 -63 -31 -4
5 11 95 23 140 7 21 27 22 44 2z"/>
<path d="M2436 2701 c-25 -132 -46 -242 -46 -246 0 -3 19 -5 42 -3 l43 3 40
210 c23 116 44 225 48 243 l7 32 -44 0 -43 0 -47 -239z"/>
<path d="M2605 2918 c-3 -13 -25 -123 -48 -245 l-44 -223 71 0 c129 1 196 53
196 153 0 36 -5 53 -22 70 l-23 22 37 35 c46 44 58 97 34 147 -20 42 -66 63
-140 63 -49 0 -56 -3 -61 -22z m123 -96 c4 -41 -21 -82 -49 -82 -20 0 -21 4
-14 46 9 66 15 75 39 72 16 -2 22 -11 24 -36z m-46 -179 c10 -9 18 -27 18 -40
0 -29 -41 -73 -68 -73 -21 0 -21 2 3 108 6 26 22 28 47 5z"/>
<path d="M2880 2938 c0 -2 -20 -106 -45 -233 -25 -126 -45 -236 -45 -242 0 -8
15 -13 40 -13 33 0 41 4 45 23 3 12 25 122 48 245 l44 222 -44 0 c-24 0 -43
-1 -43 -2z"/>
<path d="M2987 2903 c28 -227 29 -257 11 -343 -24 -117 -25 -112 24 -108 l42
3 21 100 c17 80 36 129 93 243 l73 143 -46 -3 -47 -3 -36 -83 -37 -83 -7 38
c-4 21 -7 59 -7 86 l-1 47 -44 0 -44 0 5 -37z"/>
<path d="M3579 2762 c-96 -50 -126 -161 -67 -249 70 -102 237 -93 295 17 54
101 7 210 -106 248 -49 17 -63 15 -122 -16z"/>
</g>
</svg>
