<svg version="1.1" id="Layer_1" xmlns="http://www.w3.org/2000/svg" xmlns:xlink="http://www.w3.org/1999/xlink" x="0px" y="0px" viewBox="-1017.8 297 1270.1 260" style="enable-background:new -1017.8 297 1270.1 260;" xml:space="preserve">
 <style type="text/css">
  .st0{fill:#184785;}
	.st1{fill:#BA8C60;}
 </style>
 <g>
  <path class="st0" d="M134.4,399.9l2.1,16.2c0,0-14.1-6.9-31-6c-10,0.6-16.4,4.1-21.9,8.4v82.1H60.8V399.2l22.9-2.9v9.8
		c4.5-2.9,12.1-8,22.7-8.7C119.3,396.5,132.2,399.5,134.4,399.9L134.4,399.9z M-467.5,491.8c8.8-0.7,24.1-2.6,24.1-17
		c0-4.9-3.3-8.8-8.9-12c-7.6-4.3-16.9-7.7-20.6-9.4c-15-6.1-31.1-13.4-31.1-28.3c0-17.2,12.7-29.2,43.5-29.2
		c13.7,0,30.1,3.9,30.1,3.9v15.8c0,0-17.7-8.9-32.7-8.9c-10.9,0-19.9,3.3-19.9,12.4c0,4.8,3.3,8.4,8.8,11.4
		c7.7,4.2,16.9,7.3,20.6,8.8c15.1,6,31.2,13.8,31.2,31.4c0,22.4-20.8,31.8-47.4,31.8c-21.6,0-34.8-4-34.8-4v-8.6
		C-504.6,490-482.2,492.9-467.5,491.8L-467.5,491.8z M-314.2,415.6c0,0-17.2-8.9-32-8.9c-27.7,0-33.3,20.5-33.3,32.1
		c0,13.1,0.7,26,9.4,36.1c8.4,9.6,25.9,16.9,42.6,16.9c6.9,0,15.6-1.5,15.6-1.5v8.6c0,0-11.8,3.8-29.1,3.8
		c-46.2,0-63.3-23.4-63.3-56.4c0-27.3,14-50.2,52.3-50.2c23.1,0,38,3.9,38,3.9v15.7H-314.2z M13.9,431.6c0-12.8-8.6-24.9-22.7-24.9
		c-20.8,0-25.6,16.8-26.7,24.9H13.9z M36.2,498.3c0,0-12.3,4.2-33.4,4.2c-38.8,0-61.5-20.2-61.5-56.4c0-31.2,14.5-50.2,53.3-50.2
		c25.1,0,44.8,14.8,44.8,40.9v4.5h-75.3c0,10.8,1.8,25,10.8,34.8c8.7,9.5,24.5,15.6,41.7,15.6c8.4,0,19.8-2.9,19.8-2.9v9.5H36.2z
		 M-177.4,401.2l22.9-3l37,76.3l34.9-76.3h17.1l-48.9,104.2h-13.8L-177.4,401.2L-177.4,401.2z M-241,491.7c27.7,0,30-25.3,30-42
		c0-17.9-4.3-43-30.5-43c-28.7,0-30.2,25.1-30.2,43C-271.7,466.2-266.9,491.7-241,491.7z M-296.5,449.7c0-31.8,16.1-53.8,54.9-53.8
		c34.8,0,55.6,21.1,55.6,53.6c0,32.7-17.9,53-55.1,53C-276.8,502.5-296.5,480.8-296.5,449.7z M-559.9,364.6
		c0-7.3,7.1-13.2,16.2-13.2c8.6,0,15.9,5.9,15.9,13.2c0,7.7-7.4,13.2-15.9,13.2C-552.8,377.8-559.9,371.9-559.9,364.6z
		 M-554.3,398.8l22.9-3v104.5h-22.9V398.8L-554.3,398.8z M-664.8,353.7c23.6,0,46.2,5.6,62.1,18.1c17.1,13.4,26.5,34.2,26.5,55.1
		c0,21.1-9,42-26.3,55.3c-15.8,12.3-39,17.8-62.5,17.8h-43V353.7H-664.8L-664.8,353.7z M-682.3,364.8v124.6c16.6,0,32.2-1.3,42.9-6
		c23.6-10.6,35.3-32.7,35.3-56.3c0-23.7-11.7-45.7-35.3-56.3C-650.1,365.9-665.7,364.8-682.3,364.8z M149.5,398.6l21.9-2.8l29.9,75
		l34-75h16.9l-48.1,106.1c-8,16.9-22.2,39.3-47.7,39.3h-3.9v-15.7c25.7,1.6,36.2-17.5,36.2-25.1c0-5.9-2.9-12.2-2.9-12.2
		L149.5,398.6L149.5,398.6z">
  </path>
  <path class="st1" d="M-930.5,369.7c-6.4,6.3-12.8,12.8-18.9,19.6c19.9,21.7,40.4,42.7,61.4,63.3c21-20.6,41.6-41.6,61.4-63.3
		c-6.1-6.7-12.4-13-18.9-19.3c-14.3,13.5-28.5,27.2-42.6,41.1C-901.9,397.1-916.1,383.3-930.5,369.7L-930.5,369.7z M-910.8,352.2
		c7.9,6.4,15.5,13.1,23,19.9c7.5-6.8,15.1-13.5,22.9-19.9c-7.4-6.2-15.1-12.2-23-17.8C-895.8,340-903.4,346-910.8,352.2z
		 M-966.4,408.6c-4.9,6.1-9.6,12.3-14.1,18.8c25.4,35.3,57,66.6,92.5,91.7c35.4-25.1,66.9-56.4,92.1-91.8
		c-4.3-6.3-8.9-12.5-13.7-18.5c-23.4,29.3-49.9,56.2-78.2,80.9C-916.2,464.7-942.7,437.9-966.4,408.6L-966.4,408.6z M-1002.3,427
		c-0.1-61.7,51.8-114.4,113.6-114.5c61.9,0,113.8,52.9,113.7,114.5c0,61.7-51.9,114.3-113.7,114.3
		C-950.3,541.3-1002.1,488.7-1002.3,427z M-1017.8,427c0-71.9,57.9-130,129.3-130s129.3,58.1,129.3,130c0,71.7-57.9,130-129.3,130
		C-959.9,556.9-1017.8,498.7-1017.8,427z M-1009.1,427c0,66.9,53.9,121.1,120.5,121.1S-768,493.8-768,427
		c0-66.9-53.9-121.1-120.5-121.1C-955.1,305.8-1009.1,360.1-1009.1,427z">
  </path>
 </g>
</svg>