<svg version="1.1" id="Layer_1" xmlns="http://www.w3.org/2000/svg" xmlns:xlink="http://www.w3.org/1999/xlink" x="0px" y="0px" viewBox="-717.6 415.5 712.8 143.2" style="enable-background:new -717.6 415.5 712.8 143.2;" xml:space="preserve">
 <title>
  Investec Online (South Africa)
 </title>
 <desc>
  Created with Sketch.
 </desc>
 <g id="Page-1">
  <g id="FI-logos:-South-Africa">
   <g id="Investec-Online-_x28_South-Africa_x29_">
    <path id="Fill-2" d="M-663.8,506.6c-22.4-1.2-40.4-17.3-41.5-37.3h-12.3v-4.4h53.8v-32.1c-14.8,1.2-26.7,12.8-29.2,28.1H-705
				c3.3-18.1,20.6-31.7,41.2-32.9v-12.4h4.3v49.4h53.8v4.4h-11.2c-1.1,19.3-17.3,34.5-38.3,36.9v-4.8c14.4-3.2,25.6-16.1,26.4-32.1
				h-30.7V519h-4.3V506.6z M-693.9,469.4c1.1,17.2,14.2,30.8,30.1,32.4v-32.4H-693.9z M-655.2,428.4c18.7,2,33.8,15.6,36.6,32.4
				h-11.3c-2.5-14-12.7-24.8-25.3-27.6V428.4L-655.2,428.4z">
    </path>
    <path id="Fill-3" d="M-29.2,547.3c-19.7,0-28.3-12-28.3-25.8c0-10.2,6.9-23.1,22-23.1c9.3,0,14.4,1.2,19.1,4.9
				c1.7,1.4,3.3,5.9,5.9,7.9c0.8,0.6,2.2,0.6,4.3,0c0-4.3,0-7.4,0-9.5c0-4.8-14.8-8.6-24.1-8.6c-25.6,0-41.5,13.2-41.5,32.7
				c0,14.2,14.9,30.8,33.4,30.8c14.3,0,25.6-2.7,33.6-15.5v-0.4C-11.5,544.2-20.3,547.3-29.2,547.3z">
    </path>
    <path id="Fill-4" d="M-295.4,541.8c-4.6,4.3-15.1,7.8-26.3,7.8c-16.7,0-25.5-11.8-25.5-25c0-1.8,0-2.7,0-4.1h51.8
				c0-19.6-16.3-27.3-29.9-27.3c-24.7,0-37.1,17.8-37.1,32.3c0,15.9,14,31.9,36.3,31.9c12.2,0,22.4-3.4,30.7-10.2
				C-295.5,544.7-295.5,543-295.4,541.8z M-327.3,497.7c8.8,0,17.1,5,17.1,18.2h-36.7C-345.3,506.4-339.3,497.7-327.3,497.7
				L-327.3,497.7z">
    </path>
    <path id="Fill-4_1_" d="M-84.7,541.8c-4.8,4.3-15.6,7.8-27.1,7.8c-17.2,0-26.2-11.8-26.2-25c0-1.8,0-2.7,0-4.1h53.3
				c0-19.6-16.8-27.3-30.8-27.3c-25.4,0-38.1,17.8-38.1,32.3c0,15.9,14.4,31.9,37.3,31.9c12.5,0,23.1-3.4,31.6-10.2
				C-84.8,544.7-84.8,543-84.7,541.8z M-99.9,515.9h-37.7c1.6-9.6,7.9-15.4,21.2-16.5C-105.4,500.7-99.9,506.2-99.9,515.9z">
    </path>
    <path id="Fill-6" d="M-563.6,515.7L-564,550c-0.4,5.1-1.2,5.6-4.8,5.6h-2.4v2.8c6,0,8-0.5,14.4-0.5c6,0,7.6,0.5,13.6,0.5v-2.8
				h-2.8c-3.2,0-4.4-0.5-4.4-5.6v-76.6c0-5.1,1.2-5.6,4.4-6h2.8v-2.3c-6,0-7.6,0-13.6,0c-6.4,0-8.4,0-14.4,0v2.3h2.4
				c3.6,0.5,4.4,0.9,4.8,6L-563.6,515.7">
    </path>
    <path id="Fill-7" d="M-278.4,540.7l0.8,11.7c5.5,2.7,13.4,4.9,20,4.9c19.7,0,28.7-9.9,28.7-18.4c0-21.6-38.5-16.6-38.5-32.3
				c0-5.8,6.3-9,13-9c10.6,0,16.9,1.8,18.9,9.4h2v-9.9c-6.7-2.7-13.8-4-19.3-4c-18.1,0-25.5,9.9-25.5,17.5
				c0,21.5,36.2,16.6,36.2,32.8c0,4.5-3.5,9.4-13.4,9.4c-12.2,0-18.5-4-21.2-12.1H-278.4">
    </path>
    <path id="Fill-8" d="M-189.9,484.5h-14.5v12h-9.4l0.4,5.3h9v36.4c0,12.4,9.8,18.7,23.1,18.7c9.8,0,16.6-5.3,17.1-8.4
				c-2.6,1.3-4.3,3.1-10.7,3.1c-5.1,0-15.4-1.3-15.4-13.3v-36.4h23.5v-5.3h-23V484.5">
    </path>
    <path id="Fill-9" d="M-518.7,550.2c-0.4,4.2-0.4,5.7-5.3,5.7h-2v2.8c6.1,0,8.1-0.5,14.7-0.5c6.1,0,7.7,0.5,13.8,0.5v-2.8h-2
				c-4.1,0-5.3-0.5-5.3-5.7v-41.9c5.7-2.8,14.3-6.6,20-6.6c9.8,0,15.9,3.8,15.9,11.8v36.8c-0.4,5.2-1.2,5.7-5.3,5.7h-2v2.8
				c6.1,0,8.1-0.5,14.3-0.5c6.5,0,8.1,0.5,14.3,0.5v-2.8h-2.9c-3.7,0-4.5-0.5-4.9-5.7v-36.3c0-11.3-4.9-20.3-19.6-20.3
				c-11.4,0-20,5.2-29.7,10.8v-9.9c0-0.9-0.8-1.4-1.2-1.4c-7.3,3.3-11,5.2-18.3,7.1v1.4c6.1,0.5,5.7,5.7,5.7,10.8V550.2">
    </path>
    <path id="Fill-10" d="M-405.7,558.7l26.2-50.6c3-5.9,3.8-10,10.6-10.5v-2.3c-5.5,0-7.2,0-12.7,0c-3.8,0-5.9,0-10.2,0v2.3
				c7.2,0,7.2,1.8,7.2,5c-0.4,3.2-1.7,6.4-3.8,10l-13.1,26l-13.1-24.2c-3-5.9-5.5-10-5.5-12.3c0-3.2,0-4.6,6.8-4.6v-2.3
				c-5.9,0-8.9,0-14.8,0s-10.6,0-16.1,0v2.3c6.4,0.5,7.2,1.4,11.9,11.4L-405.7,558.7">
    </path>
   </g>
  </g>
 </g>
</svg>