<svg version="1.1" id="Layer_1" xmlns="http://www.w3.org/2000/svg" xmlns:xlink="http://www.w3.org/1999/xlink" x="0px" y="0px" viewBox="0 0 903.2 193" style="enable-background:new 0 0 903.2 193;" xml:space="preserve">
 <style type="text/css">
  .st0{fill:#0174C7;}
 </style>
 <g>
  <path class="st0" d="M764.3,175.4c-10.3,0-20.3,0-30.4,0c0-36.9,0-73.8,0-110.8c9.5,0,18.9,0,28.6,0c0,4.9,0,9.7,0,14.5
		c0.2,0.1,0.3,0.2,0.5,0.2c0.4-0.5,0.9-1.1,1.3-1.6c14.2-18.9,36.8-19.3,52.4-11.8c5.9,2.8,9.6,7.7,12.5,13.8
		c0.5-0.5,0.9-0.9,1.2-1.4c6.4-8,14.1-14.3,24.5-16.1c10-1.8,19.8-0.8,29.1,3.3c10.7,4.7,16.2,13.5,18.2,24.7
		c0.7,3.7,0.9,7.5,0.9,11.2c0.1,23.8,0,47.6,0,71.3c0,0.8,0,1.7,0,2.6c-10.2,0-20.2,0-30.5,0c0-0.9,0-1.7,0-2.5
		c0-20.6,0-41.2,0-61.9c0-3.8-0.1-7.6-0.8-11.3c-1.6-9.2-6.9-13.7-16.3-14.2c-11.9-0.6-19.9,6.4-21.2,18.5
		c-0.4,3.6-0.6,7.2-0.6,10.8c-0.1,19.2,0,38.5,0,57.7c0,0.9,0,1.8,0,2.8c-10.2,0-20.2,0-30.5,0c0-0.9,0-1.8,0-2.7
		c-0.1-22.9-0.2-45.7-0.3-68.6c0-2-0.3-4-0.7-5.9c-2.2-10.9-11.3-14.2-21.5-12.1c-9,1.8-15.1,9.1-16.2,18.8
		c-0.3,2.5-0.4,5.1-0.4,7.6c0,20,0,40,0,60C764.3,173.4,764.3,174.3,764.3,175.4z">
  </path>
  <path class="st0" d="M335.6,78.4c-10.2,0-20.4,0-30.6,0c-0.1-0.1-0.1-0.1-0.1-0.2c-2.1-10.8-9.6-15.5-19.7-17
		c-8-1.2-15.8-0.8-23.4,2c-7,2.7-10.1,8.2-8.1,14.6c0.7,2.1,2.1,4.2,3.7,5.6c4.6,4.2,10.5,6,16.4,7.4c10.2,2.5,20.6,4.4,30.8,7.1
		c5.4,1.4,10.7,3.3,15.8,5.6c26.5,12.2,25.1,46.2,6.9,61c-8.7,7-18.6,10.9-29.4,12.9c-15.4,2.8-30.7,2.4-45.6-2.6
		c-13.1-4.4-23.1-12.4-28.5-25.4c-2.2-5.4-3.2-11.2-3.2-17.2c9.9,0,19.6,0,29.5,0c0.3,1.6,0.6,3.1,0.9,4.7
		c1.9,8.9,7.7,14.2,16.1,16.7c11.3,3.3,22.6,2.7,33.5-1.4c8.2-3.1,11.7-10.3,9.3-18.1c-1-3.3-3.3-5.7-6-7.6c-5.6-3.9-12-5.4-18.4-7
		c-11.5-2.8-23.1-5.3-34.4-8.4c-8.3-2.3-15.7-6.7-21-13.8c-12.4-16.6-7.5-40.1,10.8-51.2c7.6-4.6,16-6.9,24.8-8.1
		c13.1-1.8,26.1-1.5,38.8,2.6c17.5,5.8,28.4,17.5,31.2,36c0.1,0.4,0.1,0.8,0.1,1.1C335.7,78,335.6,78.2,335.6,78.4z">
  </path>
  <path class="st0" d="M350.3,98.5c0.3-8.9,3.2-16.6,9.4-22.9c6.9-7.1,15.6-10.7,25.2-12.5c14.6-2.7,29.1-2.3,43.4,1.6
		c2.2,0.6,4.4,1.5,6.4,2.5c11,5.4,16.4,14.2,16.3,26.6c-0.2,18.8-0.2,37.6,0,56.3c0.1,6.3,0.8,12.6,1.5,18.8
		c0.2,2.2,1.2,4.2,1.9,6.6c-1.3,0-2.7,0-4,0c-8.2,0-16.5,0-24.7,0c-1.4,0-2.1-0.3-2.4-1.8c-0.5-2.8-1.1-5.5-1.8-8.4
		c-0.2,0.1-0.5,0.2-0.7,0.4c-7.7,7.6-17.2,10.7-27.6,12c-8.9,1.1-17.7,0.8-26.2-2.2c-12.5-4.4-19.9-14.7-20.4-27.9
		c-0.3-8.5,1-16.6,6.9-23.3c4.4-5,10.1-8,16.4-9.8c9.9-2.8,20-3.9,30.2-5.1c4.2-0.5,8.3-1.4,12.4-2.6c4.5-1.3,7.9-3.9,7.9-9.2
		c0-5.9-1.4-11.1-7.4-13.7c-4.7-2.1-9.7-2.1-14.7-1.9c-1.4,0.1-2.9,0.3-4.3,0.6c-7.9,1.7-12.1,6-13.1,14c-0.2,1.7-0.8,2.1-2.4,2.1
		c-8.8-0.1-17.5,0-26.3,0C351.6,98.6,351,98.6,350.3,98.5z M420.9,121.1c-4.8,3.3-9.7,4.1-14.5,4.9c-3.4,0.6-6.9,0.9-10.3,1.5
		c-4.6,0.8-9.2,1.8-13.2,4.6c-5.1,3.7-6.4,8.9-5.5,14.7c0.9,5.7,4.4,9.2,9.9,10.2c4.3,0.8,8.7,1.1,13,0.8c10.6-0.7,17.9-7.5,19.4-18
		C420.6,133.8,420.5,127.8,420.9,121.1z">
  </path>
  <path class="st0" d="M651.9,98.5c-10.1,0-20.1,0-30.3,0c0.3-6.4,1.7-12.4,5.2-17.7c5.1-7.9,12.5-12.9,21.3-15.6
		c17.1-5.2,34.4-5,51.6-0.5c3.4,0.9,6.6,2.5,9.6,4.3c8.5,5.2,12.8,12.8,12.9,22.8c0,20.5-0.1,40.9,0.1,61.4
		c0.1,7.4,0.3,14.9,3.6,22.1c-10.3,0-20.4,0-30.9,0c-0.7-3.3-1.4-6.7-2.1-10.1c0,0-0.2,0-0.3,0.1c-9,9.1-20.5,12-32.7,12.8
		c-5.9,0.4-11.8,0-17.6-1.5c-16.9-4.4-25.1-17-24.1-34.2c0.9-16.3,11.1-25.3,24.8-28.3c9.4-2.1,19.1-3.1,28.6-4.8
		c4.2-0.7,8.3-1.4,12.4-2.6c4.2-1.3,7.7-3.6,7.9-8.8c0.2-6-1.1-11.3-7.1-14.1c-4.7-2.2-9.8-2.2-14.9-2c-1.1,0-2.3,0.2-3.4,0.4
		c-8.2,1.5-12.4,5.5-14,13.8C652.1,96.8,652,97.6,651.9,98.5z M692,121.7c-3,1.1-5.4,2.3-8,2.9c-4.4,1-8.9,1.6-13.4,2.3
		c-5.2,0.8-10.4,1.6-15,4.2c-5.8,3.2-8.1,9-6.8,16.2c1,5.2,5.1,9.1,11.3,10c3.8,0.5,7.7,0.7,11.5,0.4c10.5-0.7,18.4-7.9,19.6-18.2
		C691.8,133.7,691.7,127.7,692,121.7z">
  </path>
  <path class="st0" d="M493.5,175.3c-10.2,0-20.2,0-30.3,0c0-36.9,0-73.8,0-110.8c9.5,0,19,0,28.7,0c0,5.1,0,10.1,0,15.7
		c0.7-0.8,1.1-1.2,1.4-1.6c7.2-11.2,17.9-16.2,30.8-17.2c7-0.5,14,0.2,20.7,2.6c12.6,4.5,18.8,14,20.8,26.7
		c0.8,5.3,1.3,10.7,1.4,16.1c0.1,22.3,0.1,44.6,0.1,66.9c0,0.5,0,0.9,0,1.5c-10.1,0-20.2,0-30.5,0c0-0.8,0-1.6,0-2.4
		c0-19.6,0-39.2,0-58.9c0-4.1-0.3-8.2-0.9-12.2c-1.9-11.6-7.5-17.5-21.5-16.2c-12.5,1.2-18.5,7.9-19.9,21.3
		c-0.4,3.6-0.6,7.2-0.6,10.8c-0.1,18.3,0,36.6,0,54.9C493.5,173.6,493.5,174.4,493.5,175.3z">
  </path>
  <path class="st0" d="M71.6,0c3.9,5.3,5.2,10.8,3.4,16.9c-0.9,3.1-2.1,6.2-3.7,8.9c-8.1,13.8-16,27.7-24.8,41
		c-9.1,13.7-7.7,29.7,0.8,42.6c4.7,7.1,10.7,13,17.4,18c8.1,6,11.3,13.7,11,23.7c-0.4,13.8-0.1,27.7-0.1,41.7
		c-0.7,0.1-1.2,0.2-1.8,0.2c-9.8,0-19.7,0.1-29.5-0.1c-2.3,0-4.6-0.5-6.7-1.3c-4.7-1.8-7-5.4-7.2-10.5c-0.2-8.2-0.5-16.4-0.9-24.6
		c-0.2-3.8-1.6-7.3-3.7-10.5c-7.7-12.4-15.3-24.8-23-37.3c-0.5-0.9-1.1-1.7-1.5-2.6c-2-4.2-2-8.2,0.9-12.1
		C24.8,63.6,47.1,33.2,69.5,2.8C70.2,2,70.8,1.1,71.6,0z">
  </path>
  <path class="st0" d="M89.7,0c1.9,2.7,3.6,5.1,5.4,7.5c21,28.5,41.9,57,63.1,85.3c4.1,5.5,3.5,10.7,0.6,15.3
		c-5.4,8.5-10.6,17.1-15.8,25.7c-2.3,3.7-4.4,7.6-6.9,11.2c-3.3,4.7-4.5,9.9-4.8,15.4c-0.3,6.4-0.6,12.9-0.4,19.4
		c0.3,9-5.8,12.9-12.1,13.1c-11,0.4-22,0.1-33.1,0.1c-0.1-0.6-0.1-1.1-0.1-1.6c0-13.7,0-27.4,0-41.1c0-2.5,0.1-5.1,0.4-7.6
		c0.5-4.5,2.7-8.1,6-11.1c3.7-3.3,7.5-6.4,11.1-9.7c8.2-7.4,14.6-16,17-27c2.2-9.6,0.3-18.5-4.9-26.9c-8.5-13.6-16.8-27.4-24.9-41.2
		c-2.2-3.8-3.7-8.1-4.6-12.4C84.6,9.1,86.5,4.5,89.7,0z">
  </path>
  <path class="st0" d="M578.8,22.2c10.1,0,20.1,0,30.2,0c0,51,0,102,0,153.1c-10,0-20,0-30.2,0C578.8,124.4,578.8,73.4,578.8,22.2z">
  </path>
  <path class="st0" d="M112.9,86.8c0,17.6-14.4,31.9-32.3,31.9c-17.9,0-32.3-14.2-32.3-31.9C48.3,69,62.7,54.7,80.7,54.8
		C98.6,54.8,112.9,69.1,112.9,86.8z">
  </path>
 </g>
</svg>